<svg xmlns="http://www.w3.org/2000/svg" viewBox="0 0 68.616 68.367">
  <defs>
    <style>
      .cls-1 {
        fill: #fff;
      }
    </style>
  </defs>
  <g id="logout" transform="translate(-12 -10.434)">
    <path id="路径_7256" data-name="路径 7256" class="cls-1" d="M46,78.8A34.137,34.137,0,0,1,23.4,19.2c.2-.2.4-.3.6-.5,1.3-.7,2.4-3.1,4-1.2,1.4,1.7-.9,2.5-1.9,3.3C14.5,31,11.5,47.2,19.3,60.2c7,11.6,17.6,17,30.9,15.3C63.1,73.9,72,66.5,76,54s.6-23.6-8.8-32.7c-1.1-1.1-4-1.9-2.5-3.8,1.7-2,3.3.6,4.5,1.7a34.064,34.064,0,0,1,2.7,48.2A34.42,34.42,0,0,1,46,78.8Z"/>
    <path id="路径_7257" data-name="路径 7257" class="cls-1" d="M47.8,16.6c0,8.9.1,17.8-.1,26.7,0,1.9,1.3,5.3-1.4,5.3s-1.4-3.3-1.5-5.2c-.2-9-.1-17.9-.1-27.9-3,3-5.5,5.4-8,7.8-.9.8-1.8,2.7-3.3,1.3s.2-2.4,1.1-3.3c3.2-3.3,6.5-6.5,9.8-9.8,1.3-1.3,2.3-1.5,3.7-.1,3.4,3.5,6.9,6.9,10.3,10.3.8.8,1.8,1.7.7,2.9s-2,0-2.8-.7c-2.6-2.5-5.1-5.2-7.6-7.8Z"/>
  </g>
</svg>
